<svg xmlns="http://www.w3.org/2000/svg" width="24" height="24" viewBox="0 0 24 24" fill="none">
  <mask id="mask0_546_2813" style="mask-type:alpha" maskUnits="userSpaceOnUse" x="0" y="0" width="24" height="24">
    <rect width="24" height="24" fill="#D9D9D9"/>
  </mask>
  <g mask="url(#mask0_546_2813)">
    <path d="M11.9902 19.7096C11.7761 19.7096 11.5611 19.6711 11.3451 19.5942C11.129 19.5173 10.939 19.3968 10.7749 19.2327L9.33835 17.9269C7.56527 16.3102 5.98225 14.7221 4.5893 13.1625C3.19635 11.6029 2.49988 9.93203 2.49988 8.15C2.49988 6.73078 2.9784 5.54265 3.93545 4.5856C4.8925 3.62855 6.08064 3.15002 7.49985 3.15002C8.30625 3.15002 9.10273 3.33593 9.88928 3.70773C10.6758 4.07953 11.3793 4.68337 11.9999 5.51927C12.6204 4.68337 13.3239 4.07953 14.1104 3.70773C14.897 3.33593 15.6935 3.15002 16.4999 3.15002C17.9191 3.15002 19.1072 3.62855 20.0643 4.5856C21.0213 5.54265 21.4998 6.73078 21.4998 8.15C21.4998 9.95127 20.7915 11.6407 19.3748 13.2183C17.9582 14.7958 16.3787 16.3705 14.6364 17.9423L13.2152 19.2327C13.0511 19.3968 12.8595 19.5173 12.6402 19.5942C12.421 19.6711 12.2043 19.7096 11.9902 19.7096ZM11.2806 7.03848C10.7396 6.21411 10.1701 5.60994 9.57198 5.22598C8.9739 4.84199 8.28319 4.65 7.49985 4.65C6.49985 4.65 5.66652 4.98333 4.99985 5.65C4.33319 6.31667 3.99985 7.15 3.99985 8.15C3.99985 8.95257 4.2585 9.79167 4.7758 10.6673C5.2931 11.5429 5.94245 12.4134 6.72385 13.2788C7.50527 14.1442 8.35174 14.9897 9.26328 15.8154C10.1748 16.641 11.0197 17.4083 11.7979 18.1173C11.8556 18.1686 11.9229 18.1942 11.9999 18.1942C12.0768 18.1942 12.1441 18.1686 12.2018 18.1173C12.98 17.4083 13.8249 16.641 14.7364 15.8154C15.648 14.9897 16.4944 14.1442 17.2759 13.2788C18.0573 12.4134 18.7066 11.5429 19.2239 10.6673C19.7412 9.79167 19.9999 8.95257 19.9999 8.15C19.9999 7.15 19.6665 6.31667 18.9999 5.65C18.3332 4.98333 17.4999 4.65 16.4999 4.65C15.7165 4.65 15.0258 4.84199 14.4277 5.22598C13.8296 5.60994 13.2601 6.21411 12.7191 7.03848C12.6345 7.16668 12.5281 7.26283 12.3999 7.32695C12.2716 7.39105 12.1383 7.4231 11.9999 7.4231C11.8614 7.4231 11.7281 7.39105 11.5999 7.32695C11.4717 7.26283 11.3652 7.16668 11.2806 7.03848Z" fill="#2D2F34"/>
  </g>
</svg>
